<?xml version="1.0" encoding="utf-8"?>
<!-- Generator: Adobe Illustrator 15.1.0, SVG Export Plug-In . SVG Version: 6.00 Build 0)  -->
<!DOCTYPE svg PUBLIC "-//W3C//DTD SVG 1.1//EN" "http://www.w3.org/Graphics/SVG/1.1/DTD/svg11.dtd">
<svg version="1.1" id="Layer_1" xmlns="http://www.w3.org/2000/svg" xmlns:xlink="http://www.w3.org/1999/xlink" x="0px" y="0px"
	 width="540px" height="960px" viewBox="0 0 540 960" enable-background="new 0 0 540 960" xml:space="preserve">
<g>
	<g>
		<g>
			<path fill="#FFFFFF" d="M388.8,454.08c-3.78,0-7.56-1.62-10.26-4.32s-4.32-6.479-4.32-10.26s1.62-7.56,4.32-10.26
				c5.94-5.4,15.12-5.4,20.52,0c2.7,2.7,4.32,6.479,4.32,10.26s-1.62,7.56-4.32,10.26C396.36,452.46,393.12,454.08,388.8,454.08z"/>
		</g>
		<g>
			<path fill="#FFFFFF" d="M338.04,505.92c-3.78,0-7.56-1.62-10.26-4.32c-2.7-2.698-4.32-6.479-4.32-10.26s1.62-7.56,4.32-10.26
				c5.398-5.4,15.12-5.4,20.52,0c2.7,2.7,4.32,6.479,4.32,10.26S351,498.9,348.3,501.6C345.6,504.84,341.82,505.92,338.04,505.92z"
				/>
		</g>
		<g>
			<path fill="#FFFFFF" d="M455.76,577.2H84.24c-8.1,0-14.58-6.48-14.58-14.58v-194.4c0-8.1,6.48-14.58,14.58-14.58h371.52
				c8.102,0,14.58,6.48,14.58,14.58v194.4C470.34,570.18,463.86,577.2,455.76,577.2z M98.82,548.04h342.36V382.8H98.82V548.04z"/>
		</g>
		<g>
			<path fill="#FFFFFF" d="M176.58,523.2c-8.1,0-14.58-6.48-14.58-14.58v-86.4c0-8.1,6.48-14.58,14.58-14.58s14.58,6.48,14.58,14.58
				v86.4C191.16,516.72,184.68,523.2,176.58,523.2z"/>
		</g>
		<g>
			<path fill="#FFFFFF" d="M270,376.86c-8.1,0-14.58-6.48-14.58-14.58v-99.9c0-8.1,6.48-14.58,14.58-14.58
				c8.1,0,14.58,6.48,14.58,14.58v99.36C284.58,370.38,278.1,376.86,270,376.86z"/>
		</g>
		<g>
			<path fill="#FFFFFF" d="M219.78,478.38h-86.4c-8.1,0-14.58-6.479-14.58-14.58c0-8.1,6.48-14.58,14.58-14.58h86.4
				c8.1,0,14.58,6.48,14.58,14.58C234.36,471.9,227.88,478.38,219.78,478.38z"/>
		</g>
	</g>
</g>
</svg>
