<?xml version="1.0" encoding="utf-8"?>
<!-- Generator: Adobe Illustrator 15.1.0, SVG Export Plug-In  -->
<!DOCTYPE svg PUBLIC "-//W3C//DTD SVG 1.1//EN" "http://www.w3.org/Graphics/SVG/1.1/DTD/svg11.dtd" [
	<!ENTITY ns_flows "http://ns.adobe.com/Flows/1.0/">
]>
<svg version="1.1"
	 xmlns="http://www.w3.org/2000/svg" xmlns:xlink="http://www.w3.org/1999/xlink" xmlns:a="http://ns.adobe.com/AdobeSVGViewerExtensions/3.0/"
	 x="0px" y="0px" width="40px" height="40px" viewBox="940 330 40 40" overflow="visible" enable-background="new 940 330 40 40"
	 xml:space="preserve">
<defs>
</defs>
<path fill="#F2F2F2" d="M0.591,3H39.41c0.338,0,0.562-0.6,0.562-1.5c0-0.899-0.225-1.5-0.562-1.5H0.591
	C0.254,0,0.029,0.601,0.029,1.5C0.029,2.4,0.31,3,0.591,3z"/>
<path fill="#F2F2F2" d="M39.438,18.5H0.619c-0.337,0-0.562,0.601-0.562,1.501c0,0.898,0.225,1.499,0.562,1.499h38.819
	c0.338,0,0.562-0.601,0.562-1.499C40,19.101,39.719,18.5,39.438,18.5z"/>
<path fill="#F2F2F2" d="M39.381,37H0.562C0.225,37,0,37.601,0,38.5S0.225,40,0.562,40h38.819c0.338,0,0.562-0.601,0.562-1.5
	S39.663,37,39.381,37z"/>
</svg>
